<?xml version="1.0" encoding="UTF-8"?>
<!-- Properties Spread Calculator - favicon SVG (64x64 viewBox)
     Simple, high-contrast icon suitable for favicons and app icons.
     Colors: indigo -> teal gradient background, white foreground shapes.
-->
<svg xmlns="http://www.w3.org/2000/svg" viewBox="0 0 64 64" width="64" height="64" role="img" aria-label="Properties Spread Calculator logo">
  <defs>
    <linearGradient id="g" x1="0" x2="1" y1="0" y2="1">
      <stop offset="0%" stop-color="#1e3a8a" />
      <stop offset="100%" stop-color="#0ea5a4" />
    </linearGradient>
    <filter id="s" x="-20%" y="-20%" width="140%" height="140%">
      <feDropShadow dx="0" dy="1" stdDeviation="1.2" flood-color="#000" flood-opacity="0.25" />
    </filter>
  </defs>

  <!-- Background circle -->
  <circle cx="32" cy="32" r="30" fill="url(#g)" />

  <!-- Bars (spread) behind the building to suggest 'spread' / analytics -->
  <g transform="translate(14,18)" opacity="0.95">
    <rect x="0" y="18" width="6" height="12" rx="1" fill="#ffffff" opacity="0.18" />
    <rect x="9" y="12" width="6" height="18" rx="1" fill="#ffffff" opacity="0.26" />
    <rect x="18" y="6" width="6" height="24" rx="1" fill="#ffffff" opacity="0.34" />
  </g>

  <!-- Building / House silhouette -->
  <g transform="translate(16,14)">
    <!-- roof -->
    <polygon points="8,6 24,6 16,0" fill="#ffffff" />
    <!-- building body -->
    <rect x="6" y="10" width="20" height="22" rx="2" fill="#ffffff" />
    <!-- windows -->
    <rect x="10" y="14" width="4" height="4" rx="0.6" fill="#1e3a8a" />
    <rect x="18" y="14" width="4" height="4" rx="0.6" fill="#1e3a8a" />
    <rect x="10" y="22" width="4" height="4" rx="0.6" fill="#1e3a8a" />
    <rect x="18" y="22" width="4" height="4" rx="0.6" fill="#1e3a8a" />
  </g>

  <!-- Calculator on the right overlapping the building slightly -->
  <g transform="translate(34,18)">
    <rect x="0" y="0" width="14" height="22" rx="2" fill="#ffffff" />
    <!-- screen -->
    <rect x="2" y="2" width="10" height="5" rx="1" fill="#1e3a8a" />
    <!-- buttons 3x3 -->
    <g fill="#1e3a8a">
      <rect x="2" y="9" width="3" height="3" rx="0.6" />
      <rect x="6" y="9" width="3" height="3" rx="0.6" />
      <rect x="10" y="9" width="3" height="3" rx="0.6" />
      <rect x="2" y="13" width="3" height="3" rx="0.6" />
      <rect x="6" y="13" width="3" height="3" rx="0.6" />
      <rect x="10" y="13" width="3" height="3" rx="0.6" />
      <rect x="2" y="17" width="3" height="3" rx="0.6" />
      <rect x="6" y="17" width="3" height="3" rx="0.6" />
      <rect x="10" y="17" width="3" height="3" rx="0.6" />
    </g>
  </g>

  <!-- subtle outline to make favicon pop on light backgrounds -->
  <circle cx="32" cy="32" r="30" fill="none" stroke="#000000" stroke-opacity="0.05" />
</svg>
